<?xml version="1.0" encoding="iso-8859-1"?>
<!DOCTYPE svg PUBLIC "-//W3C//DTD SVG 1.1//EN" "http://www.w3.org/Graphics/SVG/1.1/DTD/svg11.dtd">
<svg 
 version="1.1" xmlns="http://www.w3.org/2000/svg" xmlns:xlink="http://www.w3.org/1999/xlink" x="0px" y="0px" width="512px"
	 height="512px" viewBox="0 0 512 512" enable-background="new 0 0 512 512" xml:space="preserve"
><g id="2069a460dcf28295e231f3111e057d1b"><g></g><g fill="#a8d4f9"><path display="inline" d="M256,0.5C114.893,0.5,0.5,114.893,0.5,256S114.893,511.5,256,511.5S511.5,397.107,511.5,256
		S397.107,0.5,256,0.5z M166.288,62.974c8.945,11.544,19.923,27.234,28.939,44.825c17.573,34.283,20.851,41.743,20.851,41.743H256
		h39.922c0,0,3.285-7.46,20.859-41.743c9.016-17.588,19.994-33.279,28.935-44.825c31.959,14.915,59.646,37.5,80.617,65.424v63.728
		l40.421,53.895c-25.25,13.869-49.923,42.991-61.679,90.307c-2.762,11.104-3.868,22.027-3.756,32.573l-36.499,24.332l-40.388-60.581
		h-4.558h-127.75h-4.558l-40.388,60.581L109,367.781c-0.557-3.373-1.223-6.758-2.066-10.163
		c-12.052-48.506-37.677-77.86-63.588-91.297c-0.162-3.418-0.262-6.861-0.262-10.321c0-2.462,0.104-4.903,0.187-7.344l42.396-56.531
		v-63.728C106.638,100.471,134.326,77.886,166.288,62.974z M328.417,456.217l-8.542-25.625h-127.75l-8.542,25.625
		c-28.079-10.185-53.387-26.145-74.571-46.401c1.094-6.587,1.643-13.432,1.676-20.443l41.215,27.479l44.779-67.168h118.635
		l44.779,67.168l42.861-28.577c0.952,5.793,2.254,11.402,3.905,16.768c1.521-1.169,2.973-2.425,4.462-3.635
		C388.591,425.681,360.279,444.66,328.417,456.217z M295.318,245.907l-7.406-24.568c0,0,5.61-0.233,53.979-7.769
		c41.938-6.533,62.128-17.474,62.128-17.474l13.798,32.308L385.172,256L295.318,245.907z M98.441,228.404l13.798-32.308
		c0,0,20.194,10.941,62.132,17.474c48.368,7.536,53.974,7.769,53.974,7.769l-7.402,24.568L131.09,256L98.441,228.404z"></path></g></g></svg>